<svg xmlns="http://www.w3.org/2000/svg" viewBox="0 0 320 80" fill="none">
  <!-- GHST Logo for dark backgrounds: white icon + purple text -->
  <g transform="translate(8, 4)">
    <!-- Outer circle -->
    <circle cx="36" cy="36" r="33" stroke="#ffffff" stroke-width="4.5" fill="none"/>
    <!-- Inner G with cedis stroke -->
    <path d="M50 24.5C46.5 17.5 40 14 33 14C22.5 14 15 22 15 33.5C15 45 22.5 53 33 53C40 53 46 49 49 43V33H35V38.5H43.5V42C41 45.5 37.5 47.5 33 47.5C25.5 47.5 21 41.5 21 33.5C21 25.5 25.5 19.5 33 19.5C38 19.5 42 22 44.5 26L50 24.5Z" fill="#ffffff"/>
    <!-- Cedis diagonal slash -->
    <line x1="28" y1="10" x2="42" y2="62" stroke="#ffffff" stroke-width="3.5" stroke-linecap="round"/>
  </g>
  <!-- GHST wordmark -->
  <text x="100" y="58" font-family="Manrope, sans-serif" font-weight="800" font-size="50" letter-spacing="-1" fill="#cdbdff" font-style="italic">GHST</text>
</svg>
