<svg xmlns="http://www.w3.org/2000/svg" viewBox="0 0 200 200" fill="none">
  <rect width="200" height="200" rx="44" fill="#785AFF"></rect>
  
  <g fill="#ffffff">
    
    <path d="M101 36c-30.5 0-55.5 24.8-55.5 55.4 0 13.6 4.9 26 13.1 35.6L83 86c-1.6-4-2.5-8.4-2.5-13 0-19.3 16.2-35 35.5-35 7.6 0 14.7 2.4 20.5 6.5l16.3-28.2C143.4 40 127.9 36 101 36z"></path>
    
    <path d="M156 91.4c0 19.3-16.2 35-35.5 35-4.1 0-8-0.7-11.6-2L101 153.6c6.2 1.9 12.8 2.9 19.6 2.9 30.5 0 55.5-24.8 55.5-55.4 0-4.1-.4-8.1-1.3-12h-39.4v18h21.6z"></path>
    
    <rect x="92" y="14" width="16" height="174" rx="3" transform="rotate(28 100 100)"></rect>
  </g>
</svg>